<svg xmlns="http://www.w3.org/2000/svg" xmlns:xlink="http://www.w3.org/1999/xlink" fill="none" version="1.1" width="20" height="20" viewBox="0 0 20 20"><defs><clipPath id="master_svg0_1_233"><rect x="0" y="0" width="20" height="20" rx="0"/></clipPath><clipPath id="master_svg1_1_237"><rect x="0" y="0" width="20" height="20" rx="0"/></clipPath></defs><g clip-path="url(#master_svg0_1_233)"><g></g><g clip-path="url(#master_svg1_1_237)"><g><path d="M18.45905439453125,13.886419169921876L16.18635439453125,12.872785169921874L15.70455439453125,12.659149169921875L14.99095439453125,12.977331169921875L10.89999439453125,14.795509169921875C10.61379439453125,14.921969169921875,10.30378439453125,14.985519169921876,9.99090439453125,14.981879169921875C9.68611439453125,14.982679169921875,9.38440439453125,14.920799169921874,9.10454439453125,14.800059169921875L5.01363439453125,12.981876169921875L4.29999439453125,12.668240069921875L3.81817439453125,12.881876169921876L1.54544939453125,13.895509169921874C1.19797439453125,14.002089169921875,0.96075439453125,14.322969169921874,0.96075439453125,14.686419169921875C0.96075439453125,15.049869169921875,1.19797439453125,15.370759169921875,1.54544939453125,15.477329169921875L9.44999439453125,18.986419169921874C9.80415439453125,19.138029169921875,10.20493439453125,19.138029169921875,10.55908439453125,18.986419169921874L18.45905439453125,15.454599169921876C18.79575439453125,15.341339169921875,19.02255439453125,15.025749169921875,19.02255439453125,14.670509169921875C19.02255439453125,14.315269169921875,18.79575439453125,13.999689169921876,18.45905439453125,13.886419169921876Z" fill="#23c17b" fill-opacity="1"/></g><g><path d="M18.50462138671875,8.922748921875L16.363621386718748,7.977294921875L15.00002138671875,8.604567921875L12.47272138671875,9.718204921875L10.90912138671875,10.413654921875L10.74094138671875,10.486384921875L10.71821138671875,10.486384921875C10.26073138671875,10.637904921875,9.76660138671875,10.637904921875,9.30912138671875,10.486384921875L9.28185138671875,10.486384921875L9.09094138671875,10.413654921875L7.54094138671875,9.722744921875L5.00912138671875,8.600021921875L3.63639138671875,7.981840371875L1.49548338671875,8.922748921875C1.14576838671875,9.029694921875,0.90692138671875,9.352504921875,0.90692138671875,9.718204921875C0.90692138671875,10.083904921875,1.14576838671875,10.406714921875,1.49548338671875,10.513654921875L3.79548138671875,11.531834921875L5.31366138671875,12.209114921874999L5.35457138671875,12.209114921874999L9.44548138671875,14.027294921875C9.79963138671875,14.178904921874999,10.20042138671875,14.178904921874999,10.55457138671875,14.027294921875L14.64552138671875,12.209114921874999L14.68642138671875,12.209114921874999L16.20462138671875,11.531834921875L18.50462138671875,10.513654921875C18.85432138671875,10.406714921875,19.09312138671875,10.083904921875,19.09312138671875,9.718204921875C19.09312138671875,9.352504921875,18.85432138671875,9.029694921875,18.50462138671875,8.922748921875Z" fill="#23c17b" fill-opacity="1"/></g><g><path d="M1.49547502734375,6.140856064453125L3.63638302734375,7.086306064453125L3.80456302734375,7.159036064453125L4.14093302734375,7.309036064453125L4.64093302734375,7.531766064453125L5.36365302734375,7.854496064453125L7.89547302734375,8.972676064453125L9.45002302734375,9.668126064453125C9.80417302734375,9.819736064453124,10.20495302734375,9.819736064453124,10.55911302734375,9.668126064453125L12.11365302734375,8.972676064453125L14.64545302734375,7.854496064453125L15.36825302734375,7.531766064453125L15.86815302734375,7.309036064453125L16.20455302734375,7.159036064453125L16.377253027343748,7.081766064453125L18.50455302734375,6.140856064453125C18.85425302734375,6.033916064453125,19.09315302734375,5.711106064453125,19.09315302734375,5.345406064453125C19.09315302734375,4.979696064453125,18.85425302734375,4.656896064453125,18.50455302734375,4.549946064453125L10.55456302734375,1.022674064453125C10.20041302734375,0.871063364453125,9.79962302734375,0.871063364453125,9.44547302734375,1.022674064453125L1.49547502734375,4.545406064453125C1.14196102734375,4.649846064453126,0.89935302734375,4.974506064453125,0.89935302734375,5.343126064453125C0.89935310184955,5.711746064453125,1.14196102734375,6.036406064453125,1.49547502734375,6.140856064453125Z" fill="#23c17b" fill-opacity="1"/></g></g></g></svg>