<svg width="19" height="19" viewBox="0 0 19 19" fill="none" xmlns="http://www.w3.org/2000/svg">
<circle cx="9.5" cy="9.5" r="9" stroke="#2E2E2E"/>
<path d="M12.5 9.5C12.5 12.0801 12.1139 14.3939 11.5057 16.0447C11.2009 16.872 10.8499 17.5065 10.4853 17.925C10.1198 18.3447 9.78535 18.5 9.5 18.5C9.21465 18.5 8.88021 18.3447 8.51467 17.925C8.15013 17.5065 7.79911 16.872 7.4943 16.0447C6.88613 14.3939 6.5 12.0801 6.5 9.5C6.5 6.91989 6.88613 4.60609 7.4943 2.95534C7.79911 2.128 8.15013 1.49347 8.51467 1.07496C8.88021 0.655304 9.21465 0.5 9.5 0.5C9.78535 0.5 10.1198 0.655304 10.4853 1.07496C10.8499 1.49347 11.2009 2.128 11.5057 2.95534C12.1139 4.60609 12.5 6.91989 12.5 9.5Z" stroke="#2E2E2E"/>
<rect x="1" y="9" width="17" height="1" fill="#2E2E2E"/>
</svg>
